{
  "accessors": [
    {
      "bufferView": 2,
      "componentType": 5126,
      "count": 17502,
      "max": [
        32.36279296875,
        39.406394958496094,
        72.28315734863281
      ],
      "min": [
        -32.57513427734375,
        -39.40639877319336,
        17.056589126586914
      ],
      "type": "VEC3"
    },
    {
      "bufferView": 2,
      "byteOffset": 210024,
      "componentType": 5126,
      "count": 17502,
      "max": [
        1.0,
        0.9999670386314392,
        0.9999969601631165
      ],
      "min": [
        -1.0,
        -0.9999982714653015,
        -0.9999999403953552
      ],
      "type": "VEC3"
    },
    {
      "bufferView": 1,
      "componentType": 5126,
      "count": 17502,
      "max": [
        0.9922301769256592,
        0.9889137744903564
      ],
      "min": [
        0.0040720985271036625,
        0.028493039309978485
      ],
      "type": "VEC2"
    },
    {
      "bufferView": 1,
      "byteOffset": 140016,
      "componentType": 5126,
      "count": 17502,
      "max": [
        4.989999771118164,
        4.9868388175964355
      ],
      "min": [
        0.010000000707805157,
        0.010000000707805157
      ],
      "type": "VEC2"
    },
    {
      "bufferView": 0,
      "componentType": 5125,
      "count": 97944,
      "type": "SCALAR"
    },
    {
      "bufferView": 2,
      "byteOffset": 420048,
      "componentType": 5126,
      "count": 2312,
      "max": [
        40.136024475097656,
        35.43059539794922,
        52.553192138671875
      ],
      "min": [
        -40.136024475097656,
        -30.81148338317871,
        -0.07775497436523438
      ],
      "type": "VEC3"
    },
    {
      "bufferView": 2,
      "byteOffset": 447792,
      "componentType": 5126,
      "count": 2312,
      "max": [
        0.9999863505363464,
        0.9998939633369446,
        0.9986090660095215
      ],
      "min": [
        -0.9999862909317017,
        -0.999999463558197,
        -1.0
      ],
      "type": "VEC3"
    },
    {
      "bufferView": 1,
      "byteOffset": 280032,
      "componentType": 5126,
      "count": 2312,
      "max": [
        0.9950000047683716,
        0.9928006529808044
      ],
      "min": [
        0.004999999888241291,
        0.004999999888241291
      ],
      "type": "VEC2"
    },
    {
      "bufferView": 1,
      "byteOffset": 298528,
      "componentType": 5126,
      "count": 2312,
      "max": [
        0.9900000095367432,
        0.9836820960044861
      ],
      "min": [
        0.009999999776482582,
        0.009999999776482582
      ],
      "type": "VEC2"
    },
    {
      "bufferView": 0,
      "byteOffset": 391776,
      "componentType": 5125,
      "count": 10176,
      "type": "SCALAR"
    }
  ],
  "asset": {
    "extras": {
      "author": "DANILADESIGN.RU (https://sketchfab.com/vychurov)",
      "license": "CC-BY-4.0 (http://creativecommons.org/licenses/by/4.0/)",
      "source": "https://sketchfab.com/3d-models/lars-chair-31ce418ab2244450bbe7ac442b420b13",
      "title": "Lars Chair"
    },
    "generator": "Sketchfab-13.90.0",
    "version": "2.0"
  },
  "bufferViews": [
    {
      "buffer": 0,
      "byteLength": 432480,
      "name": "floatBufferViews",
      "target": 34963
    },
    {
      "buffer": 0,
      "byteLength": 317024,
      "byteOffset": 432480,
      "byteStride": 8,
      "name": "floatBufferViews",
      "target": 34962
    },
    {
      "buffer": 0,
      "byteLength": 475536,
      "byteOffset": 749504,
      "byteStride": 12,
      "name": "floatBufferViews",
      "target": 34962
    }
  ],
  "buffers": [
    {
      "byteLength": 1225040,
      "uri": "scene.bin"
    }
  ],
  "images": [
    {
      "uri": "textures/FABRIC_baseColor.jpeg"
    }
  ],
  "materials": [
    {
      "doubleSided": true,
      "name": "FABRIC",
      "pbrMetallicRoughness": {
        "baseColorTexture": {
          "index": 0
        },
        "metallicFactor": 0.0,
        "roughnessFactor": 0.7211420072899271
      }
    },
    {
      "doubleSided": true,
      "name": "WOOD",
      "pbrMetallicRoughness": {
        "baseColorTexture": {
          "index": 0
        },
        "metallicFactor": 0.17523862929867975,
        "roughnessFactor": 0.2883787836305788
      }
    }
  ],
  "meshes": [
    {
      "name": "Lars_Accent_Chair_FABRIC_0",
      "primitives": [
        {
          "attributes": {
            "NORMAL": 1,
            "POSITION": 0,
            "TEXCOORD_0": 2,
            "TEXCOORD_1": 3
          },
          "indices": 4,
          "material": 0,
          "mode": 4
        }
      ]
    },
    {
      "name": "Lars_Accent_Chair_WOOD_0",
      "primitives": [
        {
          "attributes": {
            "NORMAL": 6,
            "POSITION": 5,
            "TEXCOORD_0": 7,
            "TEXCOORD_1": 8
          },
          "indices": 9,
          "material": 1,
          "mode": 4
        }
      ]
    }
  ],
  "nodes": [
    {
      "children": [
        1
      ],
      "matrix": [
        1.0416666269302368,
        0.0,
        0.0,
        0.0,
        0.0,
        2.312964546403144e-16,
        -1.0416666269302368,
        0.0,
        0.0,
        1.0416666269302368,
        2.312964546403144e-16,
        0.0,
        0.0,
        0.0,
        0.0,
        1.0
      ],
      "name": "Sketchfab_model"
    },
    {
      "children": [
        2
      ],
      "matrix": [
        0.009999999776482582,
        0.0,
        0.0,
        0.0,
        0.0,
        0.0,
        0.009999999776482582,
        0.0,
        0.0,
        -0.009999999776482582,
        0.0,
        0.0,
        0.0,
        0.0,
        0.0,
        1.0
      ],
      "name": "4ea1c3fd39db4ccdb99c0e3a37140910.fbx"
    },
    {
      "children": [
        3
      ],
      "name": "RootNode"
    },
    {
      "children": [
        4,
        5
      ],
      "matrix": [
        1.0,
        0.0,
        0.0,
        0.0,
        0.0,
        2.220446049250313e-16,
        -1.0,
        0.0,
        0.0,
        1.0,
        2.220446049250313e-16,
        0.0,
        1.6719813346862793,
        0.03803330659866333,
        2.673879623413086,
        1.0
      ],
      "name": "Lars_Accent_Chair"
    },
    {
      "mesh": 0,
      "name": "Lars_Accent_Chair_FABRIC_0"
    },
    {
      "mesh": 1,
      "name": "Lars_Accent_Chair_WOOD_0"
    }
  ],
  "samplers": [
    {
      "magFilter": 9729,
      "minFilter": 9987,
      "wrapS": 10497,
      "wrapT": 10497
    }
  ],
  "scene": 0,
  "scenes": [
    {
      "name": "Sketchfab_Scene",
      "nodes": [
        0
      ]
    }
  ],
  "textures": [
    {
      "sampler": 0,
      "source": 0
    }
  ]
}
